<?xml version="1.0" encoding="UTF-8"?>
<svg id="Layer_1" data-name="Layer 1" xmlns="http://www.w3.org/2000/svg" viewBox="0 0 1920 1080">
  <defs>
    <style>
      .cls-1 {
        fill: #404b77;
        stroke-width: 0px;
      }
    </style>
  </defs>
  <path class="cls-1" d="M379.98,105h218.83c145,0,216.19,80.41,216.19,228.05v413.9c0,147.64-71.19,228.05-216.19,228.05h-218.83V105ZM524.99,250v579.99h71.18c46.14,0,73.82-23.73,73.82-89.64v-400.72c0-65.91-27.68-89.64-73.82-89.64h-71.18Z"/>
  <path class="cls-1" d="M89.98,394.83h145v580.17H89.98V394.83Z"/>
  <path class="cls-1" d="M89.98,105h145v145H89.98V105Z"/>
  <polygon class="cls-1" points="1395.01 105 1395.01 975 1250.01 975 1250.01 539.83 1104.99 539.83 1104.99 975 960 975 960 105 1104.99 105 1104.99 394.83 1250.01 394.83 1250.01 105 1395.01 105"/>
  <path class="cls-1" d="M1540.02,105h145v725.2h145v144.8h-290.01V105Z"/>
</svg>